<svg xmlns="http://www.w3.org/2000/svg" viewBox="0 0 445.64 34.12"><defs><style>.cls-1{fill:#fff;}</style></defs><g id="Capa_2" data-name="Capa 2"><g id="Layer_1" data-name="Layer 1"><path class="cls-1" d="M12.32,27.38a6.8,6.8,0,0,1-2.65.55,6.35,6.35,0,0,1-5.24-2.75,9.14,9.14,0,0,1-1.84-5.66,8.83,8.83,0,0,1,2.33-6.24,6.47,6.47,0,0,1,4.75-2.16,7,7,0,0,1,4.72,1.81,5.27,5.27,0,0,1,1.2,1.52l2.32-1.17A8.64,8.64,0,0,0,14,9.6a9.56,9.56,0,0,0-4.3-1.07,8.7,8.7,0,0,0-6.66,3,11.23,11.23,0,0,0-3,8,11.3,11.3,0,0,0,3,7.93,9,9,0,0,0,6.7,3.07,9.69,9.69,0,0,0,6.4-2.46A8.85,8.85,0,0,0,18,25.86l-2.27-1.29A6.54,6.54,0,0,1,12.32,27.38Z"/><polygon class="cls-1" points="34.34 8.53 33.05 8.53 33.05 9.82 33.05 18.23 33.05 20.82 33.05 29.23 33.05 30.52 34.34 30.52 47.28 30.52 48.57 30.52 48.57 27.93 47.28 27.93 35.64 27.93 35.64 20.82 43.78 20.82 45.08 20.82 45.08 18.23 43.78 18.23 35.64 18.23 35.64 11.12 47.28 11.12 48.57 11.12 48.57 8.53 47.28 8.53 34.34 8.53"/><polygon class="cls-1" points="66.75 27.93 66.75 9.82 66.75 8.53 64.16 8.53 64.16 9.82 64.16 29.23 64.16 30.52 65.45 30.52 75.8 30.52 77.09 30.52 77.09 27.93 75.8 27.93 66.75 27.93"/><polygon class="cls-1" points="92.68 8.53 91.39 8.53 91.39 9.82 91.39 18.23 91.39 20.82 91.39 29.23 91.39 30.52 92.68 30.52 105.61 30.52 106.91 30.52 106.91 27.93 105.61 27.93 93.97 27.93 93.97 20.82 102.12 20.82 103.42 20.82 103.42 18.23 102.12 18.23 93.97 18.23 93.97 11.12 105.61 11.12 106.91 11.12 106.91 8.53 105.61 8.53 92.68 8.53"/><path class="cls-1" d="M132.16,19.49c-.51-.23-2.06-.86-4.62-1.87-2.07-.8-3.29-1.56-3.66-2.27a1.73,1.73,0,0,1-.16-.68,3.19,3.19,0,0,1,2-2.91,5.55,5.55,0,0,1,2.62-.64,4.86,4.86,0,0,1,3.78,1.52,3,3,0,0,1,.81,2h2.58a5.57,5.57,0,0,0-2.32-4.52,7.65,7.65,0,0,0-4.85-1.62,7.28,7.28,0,0,0-5.63,2.33,5.51,5.51,0,0,0-1.55,3.81q0,2.88,3.91,4.82c.49.24,2,.85,4.56,1.85,2.09.81,3.32,1.59,3.69,2.32a1.61,1.61,0,0,1,.19.72,3.2,3.2,0,0,1-2.1,2.84,6.72,6.72,0,0,1-3.07.71,5.87,5.87,0,0,1-4.21-1.49,3,3,0,0,1-1-2.06h-2.59a5.46,5.46,0,0,0,2.3,4.36,8.63,8.63,0,0,0,5.47,1.78,8.21,8.21,0,0,0,6-2.33,5.52,5.52,0,0,0,1.75-3.81Q136.08,21.47,132.16,19.49Z"/><polygon class="cls-1" points="158.16 8.53 155.58 8.53 149.72 8.53 148.43 8.53 148.43 11.12 149.72 11.12 155.58 11.12 155.58 29.23 155.58 30.52 158.16 30.52 158.16 29.23 158.16 11.12 163.95 11.12 165.25 11.12 165.25 8.53 163.95 8.53 158.16 8.53"/><polygon class="cls-1" points="180.83 8.53 179.54 8.53 179.54 9.82 179.54 18.23 179.54 20.82 179.54 29.23 179.54 30.52 180.83 30.52 193.77 30.52 195.06 30.52 195.06 27.93 193.77 27.93 182.13 27.93 182.13 20.82 190.27 20.82 191.57 20.82 191.57 18.23 190.27 18.23 182.13 18.23 182.13 11.12 193.77 11.12 195.06 11.12 195.06 8.53 193.77 8.53 180.83 8.53"/><path class="cls-1" d="M297.5,10.08a6.73,6.73,0,0,0-4.36-1.55l-8.21,0h-1.3v1.3l0,9.66v11h2.59v-9.7h6.95a6.54,6.54,0,0,0,5.11-2.23,5.79,5.79,0,0,0-.75-8.51Zm-2.13,7.57a4.44,4.44,0,0,1-2.23.58l-6.95,0V11.12h6.95a4,4,0,0,1,3.33,1.55,3.31,3.31,0,0,1,.71,2A3.23,3.23,0,0,1,295.37,17.65Z"/><polygon class="cls-1" points="314.25 9.82 314.25 29.23 314.25 30.52 316.84 30.52 316.84 29.23 316.84 9.82 316.84 8.53 314.25 8.53 314.25 9.82"/><polygon class="cls-1" points="334.18 8.53 332.88 8.53 332.88 9.82 332.88 18.23 332.88 20.82 332.88 29.23 332.88 30.52 334.18 30.52 347.11 30.52 348.4 30.52 348.4 27.93 347.11 27.93 335.47 27.93 335.47 20.82 343.62 20.82 344.91 20.82 344.91 18.23 343.62 18.23 335.47 18.23 335.47 11.12 347.11 11.12 348.4 11.12 348.4 8.53 347.11 8.53 334.18 8.53"/><path class="cls-1" d="M378.54,11.86a8.64,8.64,0,0,0-6-3.33H364v22h8.54a8.55,8.55,0,0,0,6.11-3.43,10.63,10.63,0,0,0,2.17-7.57A10.3,10.3,0,0,0,378.54,11.86Zm-2.1,13.78a5.84,5.84,0,0,1-4.11,2.29h-5.75V11.12h5.75a5.91,5.91,0,0,1,4.6,2.94,8.57,8.57,0,0,1,1.29,5.37v.09A8.3,8.3,0,0,1,376.44,25.64Z"/><path class="cls-1" d="M408.71,20.27a6,6,0,0,0,3.46-3.53,5.51,5.51,0,0,0,.39-2,5.72,5.72,0,0,0-2.26-4.63,6.72,6.72,0,0,0-4.4-1.55l-8.18,0h-1.3v1.3l0,9.66v11H399v-9.7h6.5a8.94,8.94,0,0,1,2.62,3.36,43.15,43.15,0,0,1,1.94,5.4l.26.94H413l-.51-1.65Q410.58,22.47,408.71,20.27Zm-2.78-2h-4.14l0,0H399V11.12h6.92a4,4,0,0,1,3.36,1.55,3.29,3.29,0,0,1-1.1,5A4.44,4.44,0,0,1,405.93,18.23Z"/><polygon class="cls-1" points="444.87 28.71 436.46 9.31 436.1 8.53 434.42 8.53 434.07 9.31 425.66 28.71 424.88 30.52 427.69 30.52 428.05 29.74 435.26 13.09 442.47 29.74 442.83 30.52 445.64 30.52 444.87 28.71"/><path class="cls-1" d="M264.05,18.41a2.83,2.83,0,0,0-.52,0,7.21,7.21,0,0,0-1,.14,9.8,9.8,0,0,1-1.84.15c-.82,0-1.66,0-2.51-.06l-3-.2-.06,0a4.26,4.26,0,0,1-1-.16c-.15,0-.28,0-.41-.06a4.6,4.6,0,0,1-.87-.08l-.13,0a30.1,30.1,0,0,1-3.91-.34h-.12a5.38,5.38,0,0,1-1-.06c-.35,0-.84,0-1.5-.07-.9,0-1.62-.09-2.15-.15l-.22,0-.33,0-.07,0s0,0,0,0a3.6,3.6,0,0,1-.49-.23c-2.05-1.22-2.5-3.21-3.24-5.16-.84-2.23-2.35-7.47-2.28-11.33,0-.28-.9-.62-1.23-.61-2.06.07-1,.51-1.23.61-.89.34-.47,2.27-.61,2.46s.72,7.85.82,8.5a11.27,11.27,0,0,0,1,3.58l.61,1.35a.73.73,0,0,1-.64,1l-1.62.25c-1.76.27-3,.44-3.84.49a9.61,9.61,0,0,0-2.8.84,5.27,5.27,0,0,0-2,1.41,3,3,0,0,0-.56,1.39,4.25,4.25,0,0,0,0,1.52,1.12,1.12,0,0,0,.54.87,1.15,1.15,0,0,1,.43.22c.09.09.12.17.07.23s0,.2.11.41a2.88,2.88,0,0,0,.55.7c.25.25.46.45.62.59a.83.83,0,0,0,.32.22c.06,0,.87.63,2.45,1.85A32.43,32.43,0,0,0,236,31.94,22,22,0,0,0,241.45,34a7,7,0,0,0,3.81-.37A4.1,4.1,0,0,0,247,32.43a4.17,4.17,0,0,0,.65-1.81,1.1,1.1,0,0,0-.16-.9,2.81,2.81,0,0,1-.27-.55,1.22,1.22,0,0,0-.1-.58c-.24-.59-.5-.91-.8-1h-.08c-.12,0-.15-.08-.08-.16a1.63,1.63,0,0,1,.39-.32l.21-.2c.16-.22.13-.35-.11-.39s-.3-.22-.22-.54.11-.65-.23-1.25a2.38,2.38,0,0,1-.68-1.24c0-.22-.13-.35-.48-.41a1.78,1.78,0,0,0-.34,0,1.67,1.67,0,0,1-.3,0c-.06,0-.09,0-.08,0a.8.8,0,0,1,.25-.12.57.57,0,0,0,.29-.19c.09-.12.07-.27-.08-.44s-.17-.33-.06-.47a.42.42,0,0,1,.21-.12c.11,0,.18-.06.2-.1s-.06-.09-.29-.13l-.32,0a.3.3,0,0,1-.23-.12c0-.06,0-.13,0-.22l.19-.19a.65.65,0,0,0,0-.8.55.55,0,0,1,0-.54q0-.08.24-.09c.12,0,1,0,2.47.1q7,.32,10,.52a5.92,5.92,0,0,0,1,0,2.84,2.84,0,0,0,.81-.19,2.92,2.92,0,0,1,1-.1l.21.05a6.59,6.59,0,0,0,2.2-.54,4.8,4.8,0,0,0,1.65-.79C264.19,18.48,264.16,18.43,264.05,18.41ZM243.91,32.74a.3.3,0,0,1-.33.11l-.19-.07c-.24-.16-.3-.33-.16-.5s.09-.28-.11-.31h-.5c-.2,0-.26-.11-.16-.23s-.12-.22-.61-.3l-.4,0a2.25,2.25,0,0,1-.44,0c-.41-.07-.62-.22-.63-.47a.3.3,0,0,0-.06-.34.58.58,0,0,0-.34-.17l-.71-.1a4.18,4.18,0,0,1-.63-.15c-.18-.07-.25-.13-.2-.19l.12-.06a.33.33,0,0,0,.12-.06s-.05-.07-.22-.1l-.73-.08h-.09a5.31,5.31,0,0,1-.82-.26,4.46,4.46,0,0,1-1-.57c-.31-.24-.65-.48-1-.71s-.68-.4-.94-.53a1.18,1.18,0,0,1-.53-.43.36.36,0,0,1,0-.44c.19-.24.12-.39-.2-.44l-.56-.06a2.27,2.27,0,0,1-1.25-.63q-.41-.37-.36-.42s0,0,.05,0a1.7,1.7,0,0,1,.36.15l.31.14h0s-.08-.12-.3-.29a1.48,1.48,0,0,1-.47-.51.69.69,0,0,1-.1-.48.41.41,0,0,0-.11-.38.65.65,0,0,0-.4-.21,2.46,2.46,0,0,1-.53-.15,1,1,0,0,1-.38-.22c-.08-.07-.11-.11-.1-.12h0l.34.14a1.69,1.69,0,0,0,.43.15c.06,0,.1,0,.11,0l0-.08a4,4,0,0,1-.19-1.05c-.15-.57-.33-.88-.53-.91s-.17-.24.12-.61a4.14,4.14,0,0,1,1.27-1.07l.15-.07a7.1,7.1,0,0,1,1.38-.28c.72-.1,1.57-.17,2.56-.21,2.16-.06,2.45.33,2.54.34s1.05-.28,1.26,0,.38.85.63,1.26c1.64,2.73,4.14,5.16,5.08,8A4.36,4.36,0,0,1,243.91,32.74Zm.87-8.74a1.72,1.72,0,0,1,.38.57c.07.19.08.32,0,.41s-.06.14,0,.19a.6.6,0,0,0,.19.08h.43c.12,0,.17,0,.14.09a1,1,0,0,1-.32.18,1.88,1.88,0,0,1-.61.15,2.15,2.15,0,0,1-.57,0q-.3,0-.21-.18l0,0a1.82,1.82,0,0,0,.37-.36.57.57,0,0,0,.14-.3.29.29,0,0,0-.29-.27l-.38,0c-.23,0-.28-.14-.15-.32s.05-.28-.24-.33a3.42,3.42,0,0,0-.53,0,2.58,2.58,0,0,1-.52,0c-.06,0-.08,0-.06,0a6.16,6.16,0,0,1,1.44-.27l.18,0A1.79,1.79,0,0,1,244.78,24Z"/></g></g></svg>