<svg xmlns="http://www.w3.org/2000/svg" viewBox="0 0 89.24 153.73"><g id="Capa_2" data-name="Capa 2"><g id="Layer_1" data-name="Layer 1"><path d="M51.41,0c12.25,16.23,24.4,32.28,36.47,48.4a6.85,6.85,0,0,1,1.26,3.84c.07,28.4,0,56.81.1,85.21,0,1.69-.41,2.51-2.11,3q-23.76,6.48-47.46,13.13a2.36,2.36,0,0,1-3.05-1.08C24.83,136.77,13,121.11,1.21,105.4A6.15,6.15,0,0,1,.08,102Q0,59.12,0,16.27A2.2,2.2,0,0,1,1.92,13.7C18.38,9.19,34.81,4.61,51.41,0Zm36,51a9.89,9.89,0,0,0-1.49.11c-15,4.18-30.06,8.41-45.13,12.49-2.14.58-2.63,1.54-2.62,3.6q.09,40.59,0,81.19c0,1,.08,1.92.15,3.18,10.73-3,21.14-5.89,31.52-8.92a3,3,0,0,0,1.48-2.28c.12-5.73.07-11.46.07-17.19l7.66-2v19a39.77,39.77,0,0,1,5.78-1.59c2.19-.27,2.57-1.35,2.57-3.32q-.09-40.73,0-81.44ZM30.35,85.59l.62-.26c0-6.11,0-12.22,0-18.34a2.54,2.54,0,0,0-.63-1.31q-3.57-4.8-7.19-9.55a9.32,9.32,0,0,0-1.6-1.25c0,3.56.33,6.66-.07,9.66a19.49,19.49,0,0,0,5.78,17.13A47.45,47.45,0,0,1,30.35,85.59Z"/></g></g></svg>